<svg width="151" height="71" viewBox="0 0 151 71" fill="none" xmlns="http://www.w3.org/2000/svg">
<path d="M87.488 32V20.992H87.648L92.704 27.312L97.728 20.992H97.904V32H96.784V24.816C96.784 24.336 96.832 23.616 96.832 23.584C96.8 23.616 96.4 24.288 96.064 24.704L92.768 28.864H92.576L89.328 24.704C88.992 24.304 88.576 23.648 88.544 23.584C88.544 23.6 88.608 24.336 88.608 24.816V32H87.488ZM102.495 28.56H106.687L105.007 24.4C104.799 23.888 104.591 23.136 104.591 23.104C104.575 23.136 104.367 23.888 104.159 24.384L102.495 28.56ZM99.9826 32L104.495 21.008H104.687L109.295 32H108.079L107.087 29.552H102.095L101.119 32H99.9826ZM111.363 32V21.12H114.003C117.635 21.12 119.891 23.264 119.891 26.56C119.891 29.856 117.651 32 114.003 32H111.363ZM112.515 30.96H113.923C117.139 30.96 118.675 29.152 118.675 26.56C118.675 23.968 117.139 22.16 113.923 22.16H112.515V30.96ZM122.238 32V21.12H128.862V22.144H123.39V26.032H128.27V27.04H123.39V30.976H129.086V32H122.238ZM135.364 32V21.12H136.532V32H135.364ZM147.791 32.112L141.295 24.432C141.007 24.096 140.591 23.52 140.543 23.44C140.543 23.52 140.639 24.224 140.639 24.656V32H139.551V21.008H139.743L146.239 28.688C146.527 29.04 146.943 29.632 146.991 29.696C146.991 29.664 146.911 28.928 146.911 28.464V21.12H147.983V32.112H147.791ZM92.4 51.144C89.312 51.144 86.816 48.808 86.816 45.56C86.816 42.312 89.312 39.992 92.4 39.992C94.352 39.992 95.792 40.712 96.752 42.152L95.456 43.08C94.848 42.136 93.824 41.512 92.4 41.512C90.144 41.512 88.544 43.24 88.544 45.56C88.544 47.88 90.144 49.624 92.4 49.624C93.904 49.624 94.912 48.952 95.616 47.912L96.912 48.824C95.968 50.264 94.432 51.144 92.4 51.144ZM97.5734 51L102.229 40.008H102.421L107.189 51H105.429L104.629 49.016H100.005L99.2054 51H97.5734ZM100.581 47.608H104.021L102.837 44.648C102.597 44.056 102.309 43.128 102.293 43.048C102.277 43.096 102.021 44.024 101.765 44.648L100.581 47.608ZM117.448 51.112L111.448 44.648C111.016 44.184 110.424 43.432 110.424 43.432C110.424 43.432 110.536 44.328 110.536 45V51H108.968V40.008H109.192L115.192 46.456C115.608 46.904 116.2 47.672 116.2 47.672C116.2 47.672 116.088 46.712 116.088 46.104V40.12H117.656V51.112H117.448ZM119.433 51L124.089 40.008H124.281L129.049 51H127.289L126.489 49.016H121.865L121.065 51H119.433ZM122.441 47.608H125.881L124.697 44.648C124.457 44.056 124.169 43.128 124.153 43.048C124.137 43.096 123.881 44.024 123.625 44.648L122.441 47.608ZM130.828 51V40.12H133.82C137.308 40.12 139.628 42.296 139.628 45.56C139.628 48.824 137.324 51 133.82 51H130.828ZM132.524 49.512H133.708C136.54 49.512 137.868 47.88 137.868 45.56C137.868 43.24 136.54 41.608 133.708 41.608H132.524V49.512ZM140.011 51L144.667 40.008H144.859L149.627 51H147.867L147.067 49.016H142.443L141.643 51H140.011ZM143.019 47.608H146.459L145.275 44.648C145.035 44.056 144.747 43.128 144.731 43.048C144.715 43.096 144.459 44.024 144.203 44.648L143.019 47.608Z" fill="white"/>
<g clip-path="url(#clip0_715_2929)">
<path d="M52.6875 51.8804L71 36.7348L65.9863 35.3392L69.6692 23.6315L59.9512 24.8126L57.8018 19.8719L45.7302 30.3984L50.5381 8.70034L41.9451 11.6005L35.5 0L29.0549 11.6005L20.4604 8.70034L25.2698 30.3984L13.1966 19.8719L11.0488 24.8126L1.32926 23.6315L5.01218 35.3392L0 36.7348L18.3125 51.8804L15.1418 57.3589L34.2729 53.8138L34.0671 71H35.5H36.9314L36.7271 53.8138L55.8582 57.3589L52.6875 51.8804Z" fill="#FF161F"/>
</g>
<defs>
<clipPath id="clip0_715_2929">
<rect width="71" height="71" fill="white"/>
</clipPath>
</defs>
</svg>
